<?xml version="1.0" encoding="UTF-8"?>
<svg width="500" height="140" viewBox="0 0 500 140" fill="none" xmlns="http://www.w3.org/2000/svg">
  <!-- Background -->
  <rect width="500" height="140" rx="16" fill="#ffffff" stroke="#e5e7eb" stroke-width="1"/>
  
  <!-- Icon container -->
  <g transform="translate(24, 24)">
    <!-- Icon background -->
    <rect x="0" y="0" width="92" height="92" rx="12" fill="#2563eb"/>
    
    <!-- Stylized "BB" letters -->
    <g transform="translate(18, 18)">
      <!-- First B -->
      <path d="M8 12 L8 44 M8 12 L20 12 Q28 12 28 16 Q28 20 20 20 L8 20 M8 20 L20 20 Q28 20 28 24 Q28 28 20 28 L8 28 M8 28 L20 28 Q28 28 28 32 Q28 36 20 36 L8 36" 
            stroke="white" stroke-width="2.5" fill="none" stroke-linecap="round" stroke-linejoin="round"/>
      
      <!-- Second B -->
      <path d="M40 12 L40 44 M40 12 L52 12 Q60 12 60 16 Q60 20 52 20 L40 20 M40 20 L52 20 Q60 20 60 24 Q60 28 52 28 L40 28 M40 28 L52 28 Q60 28 60 32 Q60 36 52 36 L40 36" 
            stroke="white" stroke-width="2.5" fill="none" stroke-linecap="round" stroke-linejoin="round"/>
    </g>
  </g>
  
  <!-- Text content area -->
  <g transform="translate(136, 32)">
    <!-- Main title -->
    <text x="0" y="28" font-family="Inter, -apple-system, BlinkMacSystemFont, 'Segoe UI', Roboto, sans-serif" font-size="32" font-weight="700" fill="#1f2937">
      Brick
    </text>
    <text x="0" y="28" font-family="Inter, -apple-system, BlinkMacSystemFont, 'Segoe UI', Roboto, sans-serif" font-size="32" font-weight="700" fill="#2563eb" dx="95">
      BootKit
    </text>
    
    <!-- Subtitle -->
    <text x="0" y="56" font-family="Inter, -apple-system, BlinkMacSystemFont, 'Segoe UI', Roboto, sans-serif" font-size="16" fill="#6b7280">
      基于 SpringBoot 3.x 的插件式开发框架
    </text>
  </g>
  
  <!-- Version badge -->
  <g transform="translate(370, 26)">
    <rect x="0" y="0" width="110" height="32" rx="16" fill="#10b981"/>
    <text x="55" y="22" font-family="Inter, -apple-system, BlinkMacSystemFont, 'Segoe UI', Roboto, sans-serif" font-size="15" font-weight="600" fill="white" text-anchor="middle">
      v4.0.1
    </text>
  </g>
  
  <!-- Decorative elements -->
  <circle cx="460" cy="28" r="4" fill="#2563eb" opacity="0.3"/>
  <circle cx="472" cy="24" r="2" fill="#10b981" opacity="0.5"/>
  <circle cx="456" cy="38" r="3" fill="#f59e0b" opacity="0.4"/>
  
  <!-- Bottom accent line -->
  <rect x="24" y="120" width="452" height="2" fill="#e5e7eb"/>
</svg>